<svg xmlns="http://www.w3.org/2000/svg" viewBox="0 0 24 24" width="100%" height="100%"><path d="M12 8a4 4 0 1 0 4 4 4 4 0 0 0-4-4Zm0 7a3 3 0 1 1 3-3 3 3 0 0 1-3 3Z"/><path d="M18.84 13a5.81 5.81 0 0 0 .08-1 6.19 6.19 0 0 0-.08-1.07l1.78-1.5a7.24 7.24 0 0 0-.53-1.36 9.09 9.09 0 0 0-.65-1.14 8.56 8.56 0 0 0-.93-1.14l-2.2.8a6.71 6.71 0 0 0-1.8-1l-.41-2.3A8.63 8.63 0 0 0 12.66 3h-1.32a8.63 8.63 0 0 0-1.44.22l-.41 2.3a6.71 6.71 0 0 0-1.8 1l-2.2-.8a8.56 8.56 0 0 0-.93 1.14A9.09 9.09 0 0 0 3.91 8a7.24 7.24 0 0 0-.53 1.36l1.78 1.5A6.19 6.19 0 0 0 5.08 12a5.81 5.81 0 0 0 .08 1l-1.79 1.5a8.62 8.62 0 0 0 .52 1.37A9.09 9.09 0 0 0 4.54 17a11.18 11.18 0 0 0 .92 1.14l2.19-.79a6.74 6.74 0 0 0 1.84 1.06l.41 2.3a7.81 7.81 0 0 0 1.45.22h1.3a7.81 7.81 0 0 0 1.45-.22l.41-2.3a6.74 6.74 0 0 0 1.84-1.06l2.19.79a11.18 11.18 0 0 0 .92-1.14 9.09 9.09 0 0 0 .65-1.14 8.62 8.62 0 0 0 .52-1.37Zm.36 2.45a6.64 6.64 0 0 1-.57 1c-.12.19-.26.36-.39.53l-1.55-.55-.53-.2-.44.36a5.9 5.9 0 0 1-1.57.91l-.53.2-.1.56-.29 1.63-.68.07L12 20h-.59c-.22 0-.43 0-.64-.06l-.29-1.63-.1-.56-.53-.2a5.9 5.9 0 0 1-1.57-.91l-.44-.36-.53.2-1.55.52-.39-.52a7.41 7.41 0 0 1-.58-1c-.09-.19-.18-.39-.26-.6L5.8 13.8l.44-.37-.09-.56a4.94 4.94 0 0 1-.07-.87 5.62 5.62 0 0 1 .07-.92l.09-.55-.44-.37L4.54 9.1c.08-.2.17-.39.26-.59a9.31 9.31 0 0 1 .58-1L5.79 7l1.56.57.52.19.44-.35a5.62 5.62 0 0 1 1.53-.88l.53-.2.1-.56.29-1.63c.22 0 .45-.06.68-.08L12 4h.59c.21 0 .43 0 .65.07l.29 1.63.1.56.53.2a5.62 5.62 0 0 1 1.53.88l.44.35.52-.19 1.56-.5c.14.17.28.35.4.53a8.84 8.84 0 0 1 .59 1c.09.2.18.39.26.59l-1.26 1.04-.44.37.09.55a5.62 5.62 0 0 1 .07.92 4.94 4.94 0 0 1-.07.87l-.09.56.44.37 1.27 1.06c-.08.21-.17.42-.27.62Z"/></svg>