<svg xmlns="http://www.w3.org/2000/svg" viewBox="0 0 24 24" width="100%" height="100%"><path d="M13.46 21h1.83a10.28 10.28 0 0 1 4.78-1H21v-1h-.93a10.51 10.51 0 0 0-6.61 2ZM19 11.16 15 3l-3.55 7.1L9 6l-4.19 7.31h-.06A4.86 4.86 0 0 0 3 13v1a3.85 3.85 0 0 1 1.37.2 5 5 0 0 1 1.29.8 3.51 3.51 0 0 1 1.18 2.15 25.72 25.72 0 0 0-2.75 3.63A2.06 2.06 0 0 0 4 21h1.13c3.94-6 8.69-8.7 15.87-9v-1c-.71 0-1.39.09-2 .16ZM7.67 16.31a4.5 4.5 0 0 0-1.36-2.07 5.79 5.79 0 0 0-.62-.45L9 8l1.91 3.18-2 4.05c-.46.34-.86.71-1.24 1.08Zm3-2.38L15 5.24l2.91 6.06a18.66 18.66 0 0 0-7.26 2.63Zm4.95 1.94a14.94 14.94 0 0 0-3.88 1.87l.56.83a14.19 14.19 0 0 1 3.7-1.78ZM8.23 21h1.3a13.9 13.9 0 0 1 1.74-1.69l-.63-.78A14.83 14.83 0 0 0 8.23 21Zm8.52-5.56.25 1a13.52 13.52 0 0 1 4-.44v-1a14.89 14.89 0 0 0-4.25.44Z"/></svg>