<svg xmlns="http://www.w3.org/2000/svg" viewBox="0 0 24 24" width="100%" height="100%"><path d="M18.501 9.519a.5.5 0 0 1-.468-.324c-.992-2.629-2.437-3.983-4.833-4.53-3.008-.684-5.825 1.691-5.854 1.715a.5.5 0 0 1-.652-.757c.13-.112 3.223-2.734 6.729-1.932 2.725.621 4.435 2.21 5.546 5.15a.5.5 0 0 1-.468.678Z"/><path d="M6.998 18.518a.5.5 0 0 1-.5-.5c0-3.69 1.866-8.838 4.906-8.838 1.47 0 3.055 1.273 3.055 3.328 0 .651-.36 1.564-.706 2.446-.227.575-.508 1.291-.508 1.559 0 .98.692.98.919.98 1.69 0 2.259-3.447 2.259-5.02 0-.212-.05-5.223-4.405-5.223-5.157 0-6.55 6.734-6.562 6.803a.5.5 0 0 1-.981-.193c.014-.077 1.562-7.61 7.543-7.61 4.275 0 5.405 4.07 5.405 6.224 0 1.673-.585 6.02-3.259 6.02-1.416 0-1.919-1.067-1.919-1.981 0-.458.268-1.138.577-1.924.284-.722.637-1.62.637-2.081 0-1.438-1.066-2.328-2.055-2.328-2.104 0-3.906 4.31-3.906 7.838a.5.5 0 0 1-.5.5Z"/><path d="M10.979 21.002a.499.499 0 0 1-.315-.112c-.059-.048-1.435-1.19-1.435-2.86 0-2.067 1.734-6.033 1.808-6.2a.5.5 0 1 1 .915.402c-.017.039-1.723 3.94-1.723 5.797 0 1.19 1.057 2.078 1.068 2.086a.5.5 0 0 1-.318.887Z"/></svg>