<svg xmlns="http://www.w3.org/2000/svg" viewBox="0 0 24 24" width="100%" height="100%"><path d="M15.6 5.5c1.875 0 3.4 1.608 3.4 3.583a3.638 3.638 0 0 1-1.087 2.62c-.682.67-4.323 4.602-5.913 6.323-1.589-1.721-5.23-5.656-5.915-6.325A3.622 3.622 0 0 1 5 9.083C5 7.107 6.525 5.5 8.4 5.5c1.096 0 2.132.565 2.771 1.512L12 8.241l.829-1.229C13.468 6.065 14.504 5.5 15.6 5.5m0-1c-1.49 0-2.804.773-3.6 1.953C11.204 5.273 9.89 4.5 8.4 4.5 5.97 4.5 4 6.552 4 9.083c0 1.315.533 2.5 1.386 3.334C6.24 13.25 12 19.5 12 19.5s5.762-6.247 6.614-7.083A4.657 4.657 0 0 0 20 9.083c0-2.53-1.97-4.583-4.4-4.583Z"/></svg>