<svg xmlns="http://www.w3.org/2000/svg" viewBox="0 0 24 24" width="100%" height="100%"><path fill-rule="evenodd" d="M20.58 3.72a1.13 1.13 0 0 0-.17-.23 1.74 1.74 0 0 0-.26-.19A16.2 16.2 0 0 0 17 3a15 15 0 0 0-6.38 1.37 11 11 0 0 0-2 1.22 9.16 9.16 0 0 0-1.23 1.07 5.92 5.92 0 0 0-.39.45 3.42 3.42 0 0 0-.22.28c-.1.12-.19.25-.29.38-1.94 2.54-2.1 5.32.61 8.32l.06.06L3 20.29l.71.71 4.13-4.13.22.21c.19.16.39.32.58.46a6.78 6.78 0 0 0 4 1.42 6.76 6.76 0 0 0 4.54-1.9l.18-.16.39-.39.21-.23a11.33 11.33 0 0 0 .74-.94 12 12 0 0 0 1.19-2.2 15.83 15.83 0 0 0 .69-9.42Zm-1.59 9a11.08 11.08 0 0 1-1.08 2 8.52 8.52 0 0 1-.68.86 1.54 1.54 0 0 1-.17.19l-.33.33-.12.11-.07.06A5.79 5.79 0 0 1 12.67 18a5.8 5.8 0 0 1-3.44-1.23l-.5-.39-.18-.18L12 12.71l-.71-.71-3.44 3.44c-2.2-2.43-2.37-4.66-.56-7l.12-.17.12-.27.17-.22.36-.39a9.93 9.93 0 0 1 1.14-1 10.74 10.74 0 0 1 1.83-1.11A13.91 13.91 0 0 1 17 4a15.63 15.63 0 0 1 2.65.23 14.8 14.8 0 0 1-.65 8.53Z"/></svg>