<svg xmlns="http://www.w3.org/2000/svg" viewBox="0 0 24 24" width="100%" height="100%"><path d="M12 2C6.477 2 2 6.477 2 12c0 5.524 4.477 10 10 10s10-4.477 10-10S17.523 2 12 2zm4.586 14.424a.623.623 0 0 1-.857.207c-2.348-1.435-5.304-1.76-8.785-.964a.624.624 0 0 1-.278-1.215c3.81-.871 7.077-.496 9.713 1.115a.622.622 0 0 1 .207.856zM17.81 13.7a.78.78 0 0 1-1.073.256c-2.687-1.652-6.785-2.13-9.964-1.165A.78.78 0 0 1 6.32 11.3c3.631-1.102 8.147-.569 11.233 1.328a.78.78 0 0 1 .256 1.073zm.106-2.836C14.692 8.95 9.375 8.774 6.298 9.708a.935.935 0 1 1-.543-1.79c3.533-1.073 9.405-.865 13.116 1.337a.935.935 0 1 1-.955 1.609z"/></svg>