<svg xmlns="http://www.w3.org/2000/svg" viewBox="0 0 24 24" width="100%" height="100%"><path d="M12.55 13.79a3.09 3.09 0 0 1 .25 1.72 3.26 3.26 0 0 1-.6 1.58 3.14 3.14 0 0 1-1.67 1.11 6 6 0 0 1-1.75.28 7.68 7.68 0 0 1-2.08-.19 3.43 3.43 0 0 1-2.27-1.68A3.75 3.75 0 0 1 4 15v-.09h2.22v.14a2 2 0 0 0 .21.63 1.53 1.53 0 0 0 .81.69 3.73 3.73 0 0 0 2.51.09 1.15 1.15 0 0 0 .84-.82.88.88 0 0 0-.32-1 3.43 3.43 0 0 0-1-.53c-.46-.17-.94-.28-1.42-.41a16.22 16.22 0 0 1-2-.56 2.33 2.33 0 0 1-1.27-1 3.45 3.45 0 0 1-.1-3 2.87 2.87 0 0 1 1.7-1.45 5.67 5.67 0 0 1 1.69-.31 6.37 6.37 0 0 1 2.38.26 3.09 3.09 0 0 1 2.12 2.45 3.31 3.31 0 0 1 .07.55v.07h-2a1.67 1.67 0 0 0-.19-.55 1.7 1.7 0 0 0-1.33-.94 3.55 3.55 0 0 0-1.62 0 1.19 1.19 0 0 0-.91 1.17.77.77 0 0 0 .3.61 2.64 2.64 0 0 0 1 .48l2.27.6a8 8 0 0 1 1.43.48 2.42 2.42 0 0 1 1.16 1.23Zm3.46.33L18.3 21l-.65-.46-4.44-3.15v-.07a4 4 0 0 0 .55-1.32l1.68 1.19-.13-.4-1.07-3.2 3.15-2.23h-3.91v-.16a9.43 9.43 0 0 0-.07-1.06 4.18 4.18 0 0 0-1.05-2.28 3.79 3.79 0 0 0-1.27-.94h-.08L12.3 3l2.28 6.87H22l-6 4.25Z"/></svg>