<svg xmlns="http://www.w3.org/2000/svg" viewBox="0 0 24 24" width="100%" height="100%"><path d="M22 7.54v-.6c0-.44-.04-.88-.12-1.31a4.247 4.247 0 0 0-3.5-3.5 9.52 9.52 0 0 0-1.31-.12H6.94c-.44 0-.88.04-1.31.12-.43.07-.85.21-1.25.41a4.247 4.247 0 0 0-2.25 3.09c-.07.43-.11.87-.12 1.31v10.13c0 .44.04.88.12 1.31a4.247 4.247 0 0 0 3.5 3.5c.43.07.87.11 1.31.12h10.13c.44 0 .88-.04 1.31-.12a4.247 4.247 0 0 0 3.5-3.5c.07-.43.11-.87.12-1.31V7.54zm-8.32 8.08c-.05.61-.15 1.43-.28 2.26-.09.59-.17.91-.23 1.14-.11.37-.52.7-1.17.7s-1.06-.32-1.17-.7c-.07-.23-.14-.55-.23-1.14-.13-.83-.23-1.65-.28-2.26-.05-.64-.08-1.05-.03-1.51.03-.24.11-.41.27-.58.3-.32.83-.52 1.45-.52s1.15.2 1.45.52c.16.17.24.33.27.58.05.47.02.87-.03 1.51zm-4.29-1.55c.06.06.1.14.09.23-.01.26 0 .52 0 .8 0 .08-.08.13-.14.08a4.703 4.703 0 0 1-2.06-3.95c.03-2.49 2.03-4.55 4.52-4.65 2.68-.1 4.9 2.05 4.9 4.71 0 1.62-.82 3.04-2.06 3.89-.06.04-.15 0-.14-.08.02-.29.02-.54 0-.8 0-.09.03-.17.09-.23.74-.7 1.2-1.68 1.2-2.78 0-2.15-1.79-3.89-3.96-3.81-2 .08-3.61 1.71-3.66 3.71-.03 1.13.44 2.16 1.2 2.88zm4.24-3.35a1.641 1.641 0 1 1-3.282-.002 1.641 1.641 0 0 1 3.282.002zm.69 7.21c-.07.02-.14-.03-.12-.1.04-.24.07-.48.1-.72.01-.08.06-.16.14-.19 2.17-.95 3.69-3.11 3.69-5.62 0-3.4-2.78-6.16-6.18-6.13-3.33.03-6.05 2.74-6.08 6.07a6.132 6.132 0 0 0 3.69 5.68c.08.03.13.11.14.19.03.24.07.48.1.72.01.07-.06.13-.12.1a7.039 7.039 0 0 1-4.7-6.73c.05-3.83 3.18-6.93 7.01-6.94a7.038 7.038 0 0 1 7.05 7.03c0 3.06-1.97 5.67-4.71 6.64z"/></svg>