<svg xmlns="http://www.w3.org/2000/svg" viewBox="0 0 24 24" width="100%" height="100%"><path d="M11.05 13.73 12 15l1-1.27s.74-1 1.47-2.15C15.84 9.31 16 8.34 16 7.81A3.91 3.91 0 0 0 12 4a3.91 3.91 0 0 0-4 3.81c0 .53.16 1.5 1.58 3.77.73 1.16 1.42 2.11 1.47 2.15ZM12 5a2.92 2.92 0 0 1 3 2.81 7.78 7.78 0 0 1-1.43 3.24c-.68 1.09-1.35 2-1.42 2.09l-.15.19-.15-.2s-.7-.94-1.42-2.08A7.78 7.78 0 0 1 9 7.81 2.92 2.92 0 0 1 12 5Z"/><path d="M18 12h-2.24l-.55 1h2.22l1.8 3H4.77l1.8-3h2.22l-.55-1H6l-3 5h18l-3-5z"/></svg>