<svg xmlns="http://www.w3.org/2000/svg" viewBox="0 0 24 24" width="100%" height="100%"><path d="m9.224 7.056-.7.332.732-2.048-.947-.338L7 8.668l3.666 1.31.338-.948-2.049-.732.706-.335c1.203-.58 3.71-1.786 6.962-.472L17 6.558c-3.667-1.48-6.547-.094-7.776.499ZM17.702 20a2.239 2.239 0 0 1-1.882-1.03H8.307A2.241 2.241 0 0 1 6.424 20a2.222 2.222 0 0 1-1.818-.943c-1.133.044-1.898-.228-2.298-.813-.335-.489-.337-.92-.28-1.198.102-.49.447-.82.634-.938.436-.274.767-.5.907-.623.233-.207.788-.7 2.104-.943.915-.17 2.12-.2 2.558-.205a12.91 12.91 0 0 1 1.845-1.106c1.044-.498 1.353-.582 2.037-.71 1.116-.213 3.002.017 5.605.675 1.839.449 4.282 1.301 4.282 3.512 0 .418 0 1.689-.708 1.81l-1.579.213A2.218 2.218 0 0 1 17.703 20ZM8.01 17.969h8.109a.5.5 0 0 1 .456.296c.2.445.642.734 1.128.734.547 0 1.021-.356 1.18-.887a.5.5 0 0 1 .445-.356l.26-.017 1.336-.181c.033-.124.076-.376.076-.85 0-.721-.365-1.77-3.52-2.54l-.004-.001c-3.064-.776-4.508-.788-5.176-.663-.59.111-.824.169-1.791.63-.954.456-1.801 1.095-1.81 1.101-.087.066-.17.122-.303.102.015.015-1.514-.001-2.54.189-1.042.193-1.445.552-1.597.687-.218.19-.564.43-1.063.744-.107.077-.342.313-.061.721.147.215.545.457 1.618.368l.125-.007a.5.5 0 0 1 .447.275c.214.422.635.685 1.1.685a1.24 1.24 0 0 0 1.128-.734.502.502 0 0 1 .457-.296Z"/></svg>