<svg xmlns="http://www.w3.org/2000/svg" viewBox="0 0 24 24" width="100%" height="100%"><path d="M14.278 7.274h.785v.001l-1.548 1.548.716.716L17 6.769 14.23 4l-.715.715 1.548 1.548h-.777C12.913 6.251 9.698 6.228 7 9.156l.744.686c2.394-2.599 5.192-2.582 6.534-2.569zm4.437 6.273.975-.71a.501.501 0 0 0-.1-.866l-3.45-1.449-.387.923 2.63 1.105-1.098.8a.5.5 0 0 0 .176.89c3.136.766 3.538 1.722 3.538 2.468 0 .475-.043.726-.076.85l-1.336.18-.26.018a.5.5 0 0 0-.445.356 1.228 1.228 0 0 1-1.18.887 1.24 1.24 0 0 1-1.128-.734.5.5 0 0 0-.456-.296H8.01a.5.5 0 0 0-.457.296 1.231 1.231 0 0 1-2.228.049.501.501 0 0 0-.447-.275l-.125.007c-1.075.089-1.473-.153-1.62-.368-.28-.408-.045-.644.062-.721.499-.314.845-.555 1.063-.744.167-.148.557-.494 1.598-.688 1.024-.19 2.538-.174 2.539-.188a.503.503 0 0 0 .303-.102c.008-.006.857-.645 1.81-1.1a11.073 11.073 0 0 1 1.762-.668l-.25-.97c-.037.01-.897.234-1.944.734-.822.393-1.551.894-1.846 1.106-.438.004-1.643.035-2.557.205-1.314.243-1.87.736-2.105.944-.14.121-.47.348-.906.622a1.535 1.535 0 0 0-.634.938c-.057.277-.055.71.28 1.198.4.585 1.164.856 2.298.812A2.222 2.222 0 0 0 6.424 20c.767 0 1.474-.396 1.882-1.03h7.515A2.239 2.239 0 0 0 17.702 20c.873 0 1.643-.498 2.011-1.269l1.58-.213c.707-.121.707-1.392.707-1.81 0-1.764-1.595-2.636-3.285-3.161z"/></svg>