<svg xmlns="http://www.w3.org/2000/svg" viewBox="0 0 24 24" width="100%" height="100%"><path d="M19 11h3v1h-3zm-1-3.58 2.486-1.435.5.866L18.5 8.286zm-.003 8.12.5-.867 2.486 1.435-.5.866zM2 11h3v1H2zm1.02-4.148.5-.866 2.485 1.435-.5.866zm-.006 9.259 2.485-1.435.5.866-2.485 1.435zM16.31 8a3.51 3.51 0 0 0 0 7c.14 0 .24 0 .27-.06A8.71 8.71 0 0 0 17 11.5a8.84 8.84 0 0 0-.43-3.44S16.45 8 16.31 8Zm-.46 5.91A2.39 2.39 0 0 1 14 11.5a2.39 2.39 0 0 1 1.84-2.4 16.11 16.11 0 0 1 .16 2.4 17.3 17.3 0 0 1-.15 2.41ZM7.69 8c-.14 0-.23 0-.26.06A8.84 8.84 0 0 0 7 11.5a8.71 8.71 0 0 0 .43 3.44s.13.06.27.06a3.51 3.51 0 0 0 0-7Zm.46 5.9A17.13 17.13 0 0 1 8 11.5a16.11 16.11 0 0 1 .16-2.4A2.39 2.39 0 0 1 10 11.5a2.37 2.37 0 0 1-1.85 2.4Z"/></svg>