<svg xmlns="http://www.w3.org/2000/svg" viewBox="0 0 24 24" width="100%" height="100%"><path d="M14 3h-4a3 3 0 0 0-3 3v12a3 3 0 0 0 3 3h4a3 3 0 0 0 3-3V6a3 3 0 0 0-3-3Zm-4 17c-1.103 0-2-.897-2-2v-.14l1.842.615.316-.95L8 16.807v-1.945l1.842.614.316-.95L8 13.807v-1.945l1.842.614.316-.949L8 10.806V8.862l1.842.614.316-.949L8 7.806V6c0-.046.01-.09.014-.135l1.828.61.316-.949-1.833-.61A1.99 1.99 0 0 1 10 4h1.5v16H10Zm6-9.193-2.158.719.316.949L16 11.86v1.946l-2.158.72.316.949L16 14.86v1.945l-2.158.72.316.948L16 17.86V18c0 1.103-.897 2-2 2h-1.5V4H14c.702 0 1.319.366 1.675.915l-1.833.61.316.95 1.828-.61c.003.045.014.089.014.135v1.807l-2.158.719.316.948L16 8.86v1.946Z"/></svg>