<svg xmlns="http://www.w3.org/2000/svg" viewBox="0 0 24 24" width="100%" height="100%"><path d="M19.5 20H21L5 4H3.5l16 16z"/><path d="M21.74 12.5 22 12l-.27-.5A11.5 11.5 0 0 0 12 6a11 11 0 0 0-5.23 1.27l.76.73A10 10 0 0 1 12 7a10.63 10.63 0 0 1 8.87 5 10.94 10.94 0 0 1-5.08 4.26l.76.76a12.17 12.17 0 0 0 5.19-4.52Zm-19.48 0A11.49 11.49 0 0 0 12 18a11.26 11.26 0 0 0 3.46-.54l-.81-.81A10.42 10.42 0 0 1 12 17a10.64 10.64 0 0 1-8.86-5 11 11 0 0 1 3.42-3.44l-.73-.73a11.81 11.81 0 0 0-3.57 3.67L2 12Z"/><path d="M10.36 10.86a2 2 0 1 1 2.78 2.78l.71.71a3 3 0 1 0-4.2-4.2ZM12 14a2 2 0 0 1-2-2l-.86-.86A3 3 0 0 0 9 12a3 3 0 0 0 3 3 3 3 0 0 0 .86-.14Z"/></svg>