<svg xmlns="http://www.w3.org/2000/svg" viewBox="0 0 24 24" width="100%" height="100%"><path d="M15.91 4a2 2 0 0 1 .84.2l.22.12-2.48 2.46A1.41 1.41 0 0 0 14 8.2a2.31 2.31 0 0 0 .72 1.06 1.83 1.83 0 0 0 1.31.74 1.58 1.58 0 0 0 1.11-.55L19.64 7c.05.09.1.17.14.26.65 1.31-.27 2.38-1.35 3.46A3.22 3.22 0 0 1 16 12a2.68 2.68 0 0 1-1.51-.38l-.67-.4-.55.55-7.92 7.92a.89.89 0 0 1-.52.31.86.86 0 0 1-.52-.31c-.12-.12-.32-.35-.31-.54a.94.94 0 0 1 .31-.5l7.92-7.91.53-.53-.36-.66c-.86-1.7-.32-2.75.91-4C13.94 5 14.89 4 15.91 4m0-1c-1.44 0-2.6 1.16-3.31 1.87C11.5 6 10.25 7.53 11.52 10L3.6 17.94a1.56 1.56 0 0 0 0 2.46 1.78 1.78 0 0 0 1.23.6 1.8 1.8 0 0 0 1.23-.6L14 12.48a3.69 3.69 0 0 0 2 .52 4.19 4.19 0 0 0 3.14-1.59c.92-.92 2.56-2.55 1.54-4.62a5 5 0 0 0-1-1.29l-3.22 3.24c-.17.17-.28.26-.4.26s-.31-.14-.61-.44c-.53-.54-.6-.73-.25-1.08l3.26-3.23a4.85 4.85 0 0 0-1.28-1A2.91 2.91 0 0 0 15.91 3Z"/></svg>